<svg width="1440" height="1024" viewBox="0 0 1440 1024" fill="none" xmlns="http://www.w3.org/2000/svg">
<g clip-path="url(#clip0_147_887)">
<rect width="1470" height="1028" transform="translate(-15)" fill="#2A264E"/>
<circle cx="61.5" cy="78.5" r="61.5" fill="#8D97CB"/>
<circle cx="589.242" cy="944.13" r="61.5" transform="rotate(178.553 589.242 944.13)" fill="#8D97CB"/>
<circle cx="1279.68" cy="195.568" r="61.5" transform="rotate(178.553 1279.68 195.568)" fill="#8D97CB"/>
<circle cx="63.4618" cy="945.667" r="61.5" transform="rotate(-89.9644 63.4618 945.667)" fill="#8D97CB"/>
<circle cx="588.108" cy="78.9045" r="61.5" transform="rotate(89.6954 588.108 78.9045)" fill="#8D97CB"/>
<path d="M-15.8927 141.21C-15.6737 168.701 -7.30768 195.509 8.14744 218.245C23.6026 240.981 45.4526 258.624 70.9346 268.942C96.4165 279.26 124.386 281.79 151.306 276.212C178.225 270.634 202.887 257.198 222.171 237.605C241.455 218.011 254.495 193.139 259.644 166.134C264.792 139.128 261.817 111.203 251.094 85.8885C240.372 60.5742 222.383 39.008 199.404 23.917C176.425 8.8261 149.486 0.888229 121.996 1.10723L123.103 140.103L-15.8927 141.21Z" fill="url(#paint0_linear_147_887)"/>
<path d="M1269.11 602.21C1269.33 629.701 1277.69 656.509 1293.15 679.245C1308.6 701.981 1330.45 719.624 1355.93 729.942C1381.42 740.26 1409.39 742.79 1436.31 737.212C1463.23 731.634 1487.89 718.198 1507.17 698.605C1526.45 679.011 1539.5 654.139 1544.64 627.134C1549.79 600.128 1546.82 572.203 1536.09 546.889C1525.37 521.574 1507.38 500.008 1484.4 484.917C1461.42 469.826 1434.49 461.888 1407 462.107L1408.1 601.103L1269.11 602.21Z" fill="url(#paint1_linear_147_887)"/>
<path d="M665.026 879.485C664.113 852.009 655.073 825.42 639.048 803.082C623.024 780.743 600.735 763.658 575.001 753.987C549.266 744.316 521.242 742.494 494.472 748.75C467.701 755.006 443.387 769.06 424.604 789.134C405.821 809.209 393.413 834.402 388.948 861.529C384.483 888.656 388.163 916.497 399.522 941.532C410.88 966.568 429.407 987.673 452.761 1002.18C476.114 1016.68 503.244 1023.94 530.72 1023.03L526.103 884.103L665.026 879.485Z" fill="url(#paint2_linear_147_887)"/>
<path d="M1355.46 130.923C1354.55 103.447 1345.51 76.8583 1329.49 54.5199C1313.46 32.1814 1291.17 15.0964 1265.44 5.42538C1239.7 -4.24567 1211.68 -6.0684 1184.91 0.187679C1158.14 6.44376 1133.83 20.4977 1115.04 40.5722C1096.26 60.6467 1083.85 85.8403 1079.39 112.967C1074.92 140.094 1078.6 167.935 1089.96 192.97C1101.32 218.006 1119.85 239.111 1143.2 253.617C1166.55 268.122 1193.68 275.377 1221.16 274.464L1216.54 135.541L1355.46 130.923Z" fill="url(#paint3_linear_147_887)"/>
<path d="M126.124 1023.1C153.615 1022.9 180.428 1014.55 203.174 999.107C225.92 983.666 243.576 961.827 253.909 936.351C264.243 910.876 266.79 882.908 261.229 855.985C255.668 829.062 242.248 804.392 222.666 785.096C203.085 765.8 178.221 752.743 151.218 747.578C124.216 742.413 96.2892 745.371 70.9682 756.078C45.6472 766.785 24.0698 784.76 8.9646 807.73C-6.14062 830.7 -14.0952 857.633 -13.8933 885.124L125.103 884.103L126.124 1023.1Z" fill="url(#paint4_linear_147_887)"/>
<path d="M1361.04 1052.01C1388.53 1051.81 1415.34 1043.46 1438.09 1028.02C1460.83 1012.58 1478.49 990.741 1488.82 965.266C1499.16 939.79 1501.7 911.822 1496.14 884.899C1490.58 857.976 1477.16 833.306 1457.58 814.01C1438 794.714 1413.13 781.658 1386.13 776.493C1359.13 771.327 1331.2 774.285 1305.88 784.992C1280.56 795.699 1258.98 813.674 1243.88 836.644C1228.77 859.614 1220.82 886.547 1221.02 914.038L1360.02 913.017L1361.04 1052.01Z" fill="url(#paint5_linear_147_887)"/>
<path d="M524.988 1.84623C497.499 2.21137 470.735 10.7198 448.081 26.2956C425.428 41.8714 407.902 63.8149 397.72 89.3513C387.537 114.888 385.156 142.87 390.877 169.76C396.598 196.65 410.164 221.239 429.86 240.419C449.556 259.598 474.497 272.507 501.53 277.511C528.562 282.516 556.471 279.392 581.728 268.535C606.985 257.678 628.455 239.576 643.424 216.516C658.392 193.457 666.187 166.477 665.822 138.988L526.834 140.834L524.988 1.84623Z" fill="url(#paint6_linear_147_887)"/>
<path d="M524.988 1.84623C497.499 2.21137 470.735 10.7198 448.081 26.2956C425.428 41.8713 407.902 63.8149 397.72 89.3513C387.537 114.888 385.156 142.87 390.877 169.76C396.598 196.65 410.164 221.239 429.86 240.419C449.556 259.598 474.497 272.507 501.53 277.511C528.562 282.516 556.471 279.392 581.728 268.535C606.985 257.678 628.455 239.576 643.424 216.516C658.392 193.457 666.187 166.477 665.822 138.988L526.834 140.834L524.988 1.84623Z" fill="url(#paint7_linear_147_887)"/>
<path d="M802.988 309.846C775.499 310.211 748.735 318.72 726.081 334.296C703.428 349.871 685.902 371.815 675.72 397.351C665.537 422.888 663.156 450.87 668.877 477.76C674.598 504.65 688.164 529.239 707.86 548.419C727.556 567.598 752.497 580.507 779.53 585.511C806.562 590.516 834.471 587.392 859.728 576.535C884.985 565.678 906.455 547.576 921.424 524.516C936.392 501.457 944.187 474.477 943.822 446.988L804.834 448.834L802.988 309.846Z" fill="url(#paint8_linear_147_887)"/>
<circle cx="323" cy="63" r="63" fill="#8591DA"/>
<circle cx="328" cy="947" r="63" fill="#8591DA"/>
<path d="M-36.3666 537.812C-18.1131 537.705 -0.059586 534.003 16.7633 526.919C33.5863 519.834 48.8491 509.506 61.6804 496.523C74.5116 483.54 84.6601 468.157 91.5463 451.252C98.4325 434.347 101.922 416.251 101.814 397.998C101.707 379.744 98.0055 361.691 90.9212 344.868C83.8368 328.045 73.5083 312.782 60.5253 299.951C47.5424 287.119 32.1592 276.971 15.2542 270.085C-1.65081 263.199 -19.7466 259.709 -38 259.817L-36.3666 537.812Z" fill="url(#paint9_linear_147_887)"/>
<path d="M671.211 494.618C652.96 494.274 634.821 497.528 617.828 504.195C600.835 510.861 585.322 520.81 572.173 533.472C559.025 546.134 548.5 561.261 541.198 577.991C533.896 594.721 529.961 612.725 529.618 630.975C529.274 649.226 532.528 667.365 539.195 684.358C545.861 701.351 555.81 716.864 568.472 730.012C581.134 743.161 596.261 753.686 612.991 760.988C629.721 768.289 647.725 772.225 665.975 772.568L671.211 494.618Z" fill="url(#paint10_linear_147_887)"/>
<circle cx="171" cy="602" r="139" fill="#9196CF"/>
<circle cx="988" cy="712" r="139" fill="#9196CF"/>
<circle cx="449" cy="418" r="139" fill="#8591DA"/>
<circle cx="946" cy="265" r="139" fill="#8591DA"/>
<path d="M516 660C516 647.13 513.465 634.387 508.54 622.497C503.615 610.607 496.397 599.804 487.296 590.704C478.196 581.603 467.393 574.385 455.503 569.46C443.613 564.535 430.87 562 418 562C405.13 562 392.387 564.535 380.497 569.46C368.607 574.385 357.804 581.603 348.704 590.704C339.603 599.804 332.385 610.607 327.46 622.497C322.535 634.387 320 647.13 320 660L516 660Z" fill="url(#paint11_linear_147_887)"/>
<path d="M1488 351C1488 338.13 1485.47 325.387 1480.54 313.497C1475.62 301.607 1468.4 290.804 1459.3 281.704C1450.2 272.603 1439.39 265.385 1427.5 260.46C1415.61 255.535 1402.87 253 1390 253C1377.13 253 1364.39 255.535 1352.5 260.46C1340.61 265.385 1329.8 272.603 1320.7 281.704C1311.6 290.804 1304.38 301.607 1299.46 313.497C1294.53 325.387 1292 338.13 1292 351L1488 351Z" fill="url(#paint12_linear_147_887)"/>
<path d="M132.539 390.564C138.975 404.9 149.518 417.006 162.833 425.35C176.149 433.695 191.64 437.903 207.348 437.444C223.056 436.984 238.274 431.877 251.079 422.768C263.885 413.659 273.701 400.957 279.287 386.27C284.874 371.582 285.979 355.567 282.464 340.251C278.949 324.935 270.971 311.005 259.539 300.223C248.107 289.441 233.734 282.291 218.239 279.677C202.743 277.064 186.821 279.104 172.485 285.539L205.024 358.024L132.539 390.564Z" fill="#8591DA"/>
<path d="M658.539 918.564C664.975 932.9 675.518 945.006 688.833 953.35C702.149 961.695 717.64 965.903 733.348 965.444C749.056 964.984 764.274 959.877 777.079 950.768C789.885 941.659 799.701 928.957 805.287 914.27C810.874 899.582 811.979 883.567 808.464 868.251C804.949 852.935 796.971 839.005 785.539 828.223C774.107 817.441 759.734 810.291 744.239 807.677C728.743 805.064 712.821 807.104 698.485 813.539L731.024 886.024L658.539 918.564Z" fill="#8591DA"/>
<path d="M1127.54 760.564C1133.98 774.9 1144.52 787.006 1157.83 795.35C1171.15 803.695 1186.64 807.903 1202.35 807.444C1218.06 806.984 1233.27 801.877 1246.08 792.768C1258.88 783.659 1268.7 770.957 1274.29 756.27C1279.87 741.582 1280.98 725.567 1277.46 710.251C1273.95 694.935 1265.97 681.005 1254.54 670.223C1243.11 659.441 1228.73 652.291 1213.24 649.677C1197.74 647.064 1181.82 649.104 1167.48 655.539L1200.02 728.024L1127.54 760.564Z" fill="#8591DA"/>
<path d="M671.539 118.564C677.975 132.9 688.518 145.006 701.833 153.35C715.149 161.695 730.64 165.903 746.348 165.444C762.056 164.984 777.274 159.877 790.079 150.768C802.885 141.659 812.701 128.958 818.287 114.27C823.874 99.5818 824.979 83.5672 821.464 68.251C817.949 52.9348 809.971 39.005 798.539 28.223C787.107 17.441 772.734 10.2911 757.239 7.67746C741.743 5.06386 725.821 7.10389 711.485 13.5396L744.024 86.0242L671.539 118.564Z" fill="#8591DA"/>
<path d="M1136.54 406.564C1142.98 420.9 1153.52 433.006 1166.83 441.35C1180.15 449.695 1195.64 453.903 1211.35 453.444C1227.06 452.984 1242.27 447.877 1255.08 438.768C1267.88 429.659 1277.7 416.957 1283.29 402.27C1288.87 387.582 1289.98 371.567 1286.46 356.251C1282.95 340.935 1274.97 327.005 1263.54 316.223C1252.11 305.441 1237.73 298.291 1222.24 295.677C1206.74 293.064 1190.82 295.104 1176.48 301.539L1209.02 374.024L1136.54 406.564Z" fill="#8591DA"/>
<circle cx="320" cy="220" r="60" fill="#8D97CB"/>
<path d="M1320 1004C1320 1037.14 1293.14 1064 1260 1064C1226.86 1064 1200 1037.14 1200 1004C1200 970.863 1226.86 944 1260 944C1293.14 944 1320 970.863 1320 1004Z" fill="#8D97CB"/>
<circle cx="691" cy="279" r="60" fill="#8D97CB"/>
<circle cx="1013" cy="66" r="60" fill="#8D97CB"/>
<circle cx="1044" cy="492" r="60" fill="#8D97CB"/>
<circle cx="1420" cy="26" r="60" fill="#8D97CB"/>
<circle cx="753" cy="720" r="60" fill="#8D97CB"/>
<circle cx="1322" cy="530" r="60" fill="#8D97CB"/>
<path d="M418 710C418 726.153 414.819 742.147 408.637 757.07C402.456 771.993 393.396 785.553 381.974 796.974C370.553 808.396 356.993 817.456 342.07 823.637C327.147 829.819 311.153 833 295 833L295 710H418Z" fill="#5E6DB2"/>
<path d="M1135 884C1135 900.153 1131.82 916.147 1125.64 931.07C1119.46 945.993 1110.4 959.553 1098.97 970.974C1087.55 982.396 1073.99 991.456 1059.07 997.637C1044.15 1003.82 1028.15 1007 1012 1007L1012 884H1135Z" fill="#5E6DB2"/>
<path d="M1250 479C1250 495.153 1246.82 511.147 1240.64 526.07C1234.46 540.993 1225.4 554.553 1213.97 565.974C1202.55 577.396 1188.99 586.456 1174.07 592.637C1159.15 598.819 1143.15 602 1127 602L1127 479H1250Z" fill="#5E6DB2"/>
<path d="M975 1053C975 1040.13 972.465 1027.39 967.54 1015.5C962.615 1003.61 955.397 992.804 946.296 983.704C937.196 974.603 926.393 967.385 914.503 962.46C902.613 957.535 889.87 955 877 955C864.13 955 851.387 957.535 839.497 962.46C827.607 967.385 816.804 974.603 807.704 983.704C798.603 992.804 791.385 1003.61 786.46 1015.5C781.535 1027.39 779 1040.13 779 1053L975 1053Z" fill="url(#paint13_linear_147_887)"/>
</g>
<defs>
<linearGradient id="paint0_linear_147_887" x1="124.21" y1="279.098" x2="121.996" y2="1.10722" gradientUnits="userSpaceOnUse">
<stop stop-color="#4B57A5"/>
<stop offset="1" stop-color="#9496CD"/>
</linearGradient>
<linearGradient id="paint1_linear_147_887" x1="1409.21" y1="740.098" x2="1407" y2="462.107" gradientUnits="userSpaceOnUse">
<stop stop-color="#4B57A5"/>
<stop offset="1" stop-color="#9496CD"/>
</linearGradient>
<linearGradient id="paint2_linear_147_887" x1="521.485" y1="745.179" x2="530.72" y2="1023.03" gradientUnits="userSpaceOnUse">
<stop stop-color="#4B57A5"/>
<stop offset="1" stop-color="#9496CD"/>
</linearGradient>
<linearGradient id="paint3_linear_147_887" x1="1211.92" y1="-3.38257" x2="1221.16" y2="274.464" gradientUnits="userSpaceOnUse">
<stop stop-color="#4B57A5"/>
<stop offset="1" stop-color="#9496CD"/>
</linearGradient>
<linearGradient id="paint4_linear_147_887" x1="264.099" y1="883.082" x2="-13.8933" y2="885.124" gradientUnits="userSpaceOnUse">
<stop stop-color="#4B57A5"/>
<stop offset="1" stop-color="#9496CD"/>
</linearGradient>
<linearGradient id="paint5_linear_147_887" x1="1499.01" y1="911.996" x2="1221.02" y2="914.038" gradientUnits="userSpaceOnUse">
<stop stop-color="#4B57A5"/>
<stop offset="1" stop-color="#9496CD"/>
</linearGradient>
<linearGradient id="paint6_linear_147_887" x1="387.846" y1="142.68" x2="665.822" y2="138.988" gradientUnits="userSpaceOnUse">
<stop stop-color="#4B57A5"/>
<stop offset="1" stop-color="#9496CD"/>
</linearGradient>
<linearGradient id="paint7_linear_147_887" x1="387.846" y1="142.68" x2="665.822" y2="138.988" gradientUnits="userSpaceOnUse">
<stop stop-color="#4B57A5"/>
<stop offset="1" stop-color="#9496CD"/>
</linearGradient>
<linearGradient id="paint8_linear_147_887" x1="665.846" y1="450.68" x2="943.822" y2="446.988" gradientUnits="userSpaceOnUse">
<stop stop-color="#4B57A5"/>
<stop offset="1" stop-color="#9496CD"/>
</linearGradient>
<linearGradient id="paint9_linear_147_887" x1="101.814" y1="397.998" x2="-37.1833" y2="398.814" gradientUnits="userSpaceOnUse">
<stop stop-color="#CBD1EB"/>
<stop offset="1" stop-color="#9196CC"/>
</linearGradient>
<linearGradient id="paint10_linear_147_887" x1="529.618" y1="630.975" x2="668.593" y2="633.593" gradientUnits="userSpaceOnUse">
<stop stop-color="#CBD1EB"/>
<stop offset="1" stop-color="#9196CC"/>
</linearGradient>
<linearGradient id="paint11_linear_147_887" x1="418" y1="562" x2="418" y2="660" gradientUnits="userSpaceOnUse">
<stop stop-color="#CBD1EB"/>
<stop offset="1" stop-color="#9196CC"/>
</linearGradient>
<linearGradient id="paint12_linear_147_887" x1="1390" y1="253" x2="1390" y2="351" gradientUnits="userSpaceOnUse">
<stop stop-color="#CBD1EB"/>
<stop offset="1" stop-color="#9196CC"/>
</linearGradient>
<linearGradient id="paint13_linear_147_887" x1="877" y1="955" x2="877" y2="1053" gradientUnits="userSpaceOnUse">
<stop stop-color="#CBD1EB"/>
<stop offset="1" stop-color="#9196CC"/>
</linearGradient>
<clipPath id="clip0_147_887">
<rect width="1470" height="1028" fill="white" transform="translate(-15)"/>
</clipPath>
</defs>
</svg>
