<svg width="2246" height="1588" viewBox="0 0 2246 1588" fill="none" xmlns="http://www.w3.org/2000/svg">
<g clip-path="url(#clip0_287_27)">
<rect width="2246" height="1588" fill="#FFF"/>
<path d="M4 0H1162L1062 176H4V0Z" fill="#ED7208"/>
<path d="M0 0H1064L962 176H0V0Z" fill="#DA133E"/>
<path d="M0 0H868L765 176H0V0Z" fill="#951952"/>
<path d="M0 0H776L623 264H0V0Z" fill="#762270"/>
<path d="M1566 1312H2246V1588H1394L1566 1312Z" fill="#DA133E"/>
<path d="M1172 117.004C1169.79 117.004 1168 118.795 1168 121.004C1168 123.213 1169.79 125.004 1172 125.004V117.004ZM1172 125.004H2092V117.004H1172V125.004Z" fill="#DA133E"/>
<path d="M2089 1240C2089 1242.21 2090.79 1244 2093 1244C2095.21 1244 2097 1242.21 2097 1240H2089ZM2089 117V1240H2097V117H2089Z" fill="#DA133E"/>
<path d="M1365 1462C1367.21 1462 1369 1460.2 1369 1458C1369 1455.79 1367.21 1454 1365 1454V1462ZM1365 1454H128V1462H1365V1454Z" fill="#DA133E"/>
<path d="M133 339C133 336.791 131.209 335 129 335C126.791 335 125 336.791 125 339H133ZM133 1462L133 339H125L125 1462H133Z" fill="#DA133E"/>
</g>
<defs>
<clipPath id="clip0_287_27">
<rect width="2246" height="1588" fill="white"/>
</clipPath>
</defs>
</svg>
